<mxfile host="65bd71144e">
    <diagram name="Page-1" id="o-9i83hBb2brApT6Z78l">
        <mxGraphModel dx="746" dy="1415" grid="1" gridSize="10" guides="1" tooltips="1" connect="1" arrows="1" fold="1" page="1" pageScale="1" pageWidth="850" pageHeight="1100" math="0" shadow="0">
            <root>
                <mxCell id="0"/>
                <mxCell id="1" parent="0"/>
                <mxCell id="N8jIvKrpUovW4Z0gwDRN-1" value="" style="whiteSpace=wrap;html=1;aspect=fixed;" parent="1" vertex="1">
                    <mxGeometry x="110" y="-10" width="650" height="650" as="geometry"/>
                </mxCell>
                <mxCell id="N8jIvKrpUovW4Z0gwDRN-2" value="" style="shape=actor;whiteSpace=wrap;html=1;" parent="1" vertex="1">
                    <mxGeometry x="40" y="110" width="40" height="60" as="geometry"/>
                </mxCell>
                <mxCell id="N8jIvKrpUovW4Z0gwDRN-3" value="" style="shape=actor;whiteSpace=wrap;html=1;" parent="1" vertex="1">
                    <mxGeometry x="40" y="480" width="40" height="60" as="geometry"/>
                </mxCell>
                <mxCell id="N8jIvKrpUovW4Z0gwDRN-4" value="" style="shape=actor;whiteSpace=wrap;html=1;fontFamily=Times New Roman;" parent="1" vertex="1">
                    <mxGeometry x="800" y="270" width="40" height="60" as="geometry"/>
                </mxCell>
                <mxCell id="N8jIvKrpUovW4Z0gwDRN-5" value="Admin" style="text;html=1;align=center;verticalAlign=middle;whiteSpace=wrap;rounded=0;" parent="1" vertex="1">
                    <mxGeometry x="795" y="320" width="50" height="30" as="geometry"/>
                </mxCell>
                <mxCell id="N8jIvKrpUovW4Z0gwDRN-6" value="Utilizator inregistrat" style="text;html=1;align=center;verticalAlign=middle;whiteSpace=wrap;rounded=0;" parent="1" vertex="1">
                    <mxGeometry x="30" y="540" width="60" height="30" as="geometry"/>
                </mxCell>
                <mxCell id="N8jIvKrpUovW4Z0gwDRN-7" value="Utilizator neinregistrat" style="text;html=1;align=center;verticalAlign=middle;whiteSpace=wrap;rounded=0;" parent="1" vertex="1">
                    <mxGeometry x="30" y="170" width="60" height="30" as="geometry"/>
                </mxCell>
                <mxCell id="N8jIvKrpUovW4Z0gwDRN-8" value="Implementarea si mentinerea masurilor de securitate" style="ellipse;whiteSpace=wrap;html=1;" parent="1" vertex="1">
                    <mxGeometry x="490" y="10" width="120" height="70" as="geometry"/>
                </mxCell>
                <mxCell id="N8jIvKrpUovW4Z0gwDRN-9" value="Moderarea continutului" style="ellipse;whiteSpace=wrap;html=1;" parent="1" vertex="1">
                    <mxGeometry x="520" y="100" width="120" height="80" as="geometry"/>
                </mxCell>
                <mxCell id="N8jIvKrpUovW4Z0gwDRN-10" value="Adaugarea de utilizatori" style="ellipse;whiteSpace=wrap;html=1;" parent="1" vertex="1">
                    <mxGeometry x="500" y="200" width="115" height="70" as="geometry"/>
                </mxCell>
                <mxCell id="N8jIvKrpUovW4Z0gwDRN-11" value="Analiza datelor si raportarea performantei" style="ellipse;whiteSpace=wrap;html=1;" parent="1" vertex="1">
                    <mxGeometry x="530" y="310" width="120" height="80" as="geometry"/>
                </mxCell>
                <mxCell id="N8jIvKrpUovW4Z0gwDRN-12" value="Monitorizarea activitatii utilizatorilor" style="ellipse;whiteSpace=wrap;html=1;" parent="1" vertex="1">
                    <mxGeometry x="490" y="420" width="120" height="80" as="geometry"/>
                </mxCell>
                <mxCell id="N8jIvKrpUovW4Z0gwDRN-13" value="Raspuns la intrebari si feedback" style="ellipse;whiteSpace=wrap;html=1;" parent="1" vertex="1">
                    <mxGeometry x="450" y="530" width="120" height="80" as="geometry"/>
                </mxCell>
                <mxCell id="N8jIvKrpUovW4Z0gwDRN-14" value="" style="endArrow=classic;html=1;rounded=0;exitX=0;exitY=0.75;exitDx=0;exitDy=0;entryX=1;entryY=0.5;entryDx=0;entryDy=0;" parent="1" source="N8jIvKrpUovW4Z0gwDRN-4" target="N8jIvKrpUovW4Z0gwDRN-11" edge="1">
                    <mxGeometry width="50" height="50" relative="1" as="geometry">
                        <mxPoint x="400" y="410" as="sourcePoint"/>
                        <mxPoint x="450" y="360" as="targetPoint"/>
                    </mxGeometry>
                </mxCell>
                <mxCell id="N8jIvKrpUovW4Z0gwDRN-15" value="" style="endArrow=classic;html=1;rounded=0;exitX=0;exitY=0.75;exitDx=0;exitDy=0;entryX=1;entryY=0.5;entryDx=0;entryDy=0;" parent="1" source="N8jIvKrpUovW4Z0gwDRN-4" target="N8jIvKrpUovW4Z0gwDRN-12" edge="1">
                    <mxGeometry width="50" height="50" relative="1" as="geometry">
                        <mxPoint x="400" y="410" as="sourcePoint"/>
                        <mxPoint x="450" y="360" as="targetPoint"/>
                    </mxGeometry>
                </mxCell>
                <mxCell id="N8jIvKrpUovW4Z0gwDRN-16" value="" style="endArrow=classic;html=1;rounded=0;exitX=0;exitY=0.75;exitDx=0;exitDy=0;entryX=1;entryY=0.5;entryDx=0;entryDy=0;" parent="1" source="N8jIvKrpUovW4Z0gwDRN-4" target="N8jIvKrpUovW4Z0gwDRN-10" edge="1">
                    <mxGeometry width="50" height="50" relative="1" as="geometry">
                        <mxPoint x="770" y="320" as="sourcePoint"/>
                        <mxPoint x="450" y="360" as="targetPoint"/>
                    </mxGeometry>
                </mxCell>
                <mxCell id="N8jIvKrpUovW4Z0gwDRN-17" value="" style="endArrow=classic;html=1;rounded=0;entryX=1;entryY=1;entryDx=0;entryDy=0;exitX=0;exitY=0.75;exitDx=0;exitDy=0;" parent="1" source="N8jIvKrpUovW4Z0gwDRN-4" target="N8jIvKrpUovW4Z0gwDRN-9" edge="1">
                    <mxGeometry width="50" height="50" relative="1" as="geometry">
                        <mxPoint x="780" y="320" as="sourcePoint"/>
                        <mxPoint x="450" y="360" as="targetPoint"/>
                    </mxGeometry>
                </mxCell>
                <mxCell id="N8jIvKrpUovW4Z0gwDRN-18" value="" style="endArrow=classic;html=1;rounded=0;exitX=0;exitY=0.75;exitDx=0;exitDy=0;entryX=1;entryY=0.5;entryDx=0;entryDy=0;" parent="1" source="N8jIvKrpUovW4Z0gwDRN-4" target="N8jIvKrpUovW4Z0gwDRN-8" edge="1">
                    <mxGeometry width="50" height="50" relative="1" as="geometry">
                        <mxPoint x="400" y="310" as="sourcePoint"/>
                        <mxPoint x="450" y="260" as="targetPoint"/>
                    </mxGeometry>
                </mxCell>
                <mxCell id="N8jIvKrpUovW4Z0gwDRN-20" value="" style="endArrow=classic;html=1;rounded=0;exitX=0;exitY=0.75;exitDx=0;exitDy=0;entryX=1;entryY=0.5;entryDx=0;entryDy=0;" parent="1" source="N8jIvKrpUovW4Z0gwDRN-4" target="N8jIvKrpUovW4Z0gwDRN-13" edge="1">
                    <mxGeometry width="50" height="50" relative="1" as="geometry">
                        <mxPoint x="400" y="510" as="sourcePoint"/>
                        <mxPoint x="450" y="460" as="targetPoint"/>
                    </mxGeometry>
                </mxCell>
                <mxCell id="N8jIvKrpUovW4Z0gwDRN-21" value="Vizualizarea postarilor" style="ellipse;whiteSpace=wrap;html=1;" parent="1" vertex="1">
                    <mxGeometry x="230" y="180" width="110" height="70" as="geometry"/>
                </mxCell>
                <mxCell id="N8jIvKrpUovW4Z0gwDRN-22" value="" style="endArrow=classic;html=1;rounded=0;exitX=1;exitY=0.75;exitDx=0;exitDy=0;entryX=0;entryY=0.5;entryDx=0;entryDy=0;" parent="1" source="N8jIvKrpUovW4Z0gwDRN-3" target="N8jIvKrpUovW4Z0gwDRN-21" edge="1">
                    <mxGeometry width="50" height="50" relative="1" as="geometry">
                        <mxPoint x="400" y="410" as="sourcePoint"/>
                        <mxPoint x="450" y="360" as="targetPoint"/>
                    </mxGeometry>
                </mxCell>
                <mxCell id="N8jIvKrpUovW4Z0gwDRN-23" value="" style="endArrow=classic;html=1;rounded=0;entryX=0;entryY=0.5;entryDx=0;entryDy=0;" parent="1" source="N8jIvKrpUovW4Z0gwDRN-2" target="N8jIvKrpUovW4Z0gwDRN-21" edge="1">
                    <mxGeometry width="50" height="50" relative="1" as="geometry">
                        <mxPoint x="400" y="410" as="sourcePoint"/>
                        <mxPoint x="450" y="360" as="targetPoint"/>
                    </mxGeometry>
                </mxCell>
                <mxCell id="N8jIvKrpUovW4Z0gwDRN-24" value="Inregistrare" style="ellipse;whiteSpace=wrap;html=1;" parent="1" vertex="1">
                    <mxGeometry x="340" y="30" width="100" height="60" as="geometry"/>
                </mxCell>
                <mxCell id="N8jIvKrpUovW4Z0gwDRN-26" value="" style="endArrow=classic;html=1;rounded=0;exitX=1;exitY=0.75;exitDx=0;exitDy=0;entryX=0;entryY=0.5;entryDx=0;entryDy=0;" parent="1" source="N8jIvKrpUovW4Z0gwDRN-2" target="N8jIvKrpUovW4Z0gwDRN-24" edge="1">
                    <mxGeometry width="50" height="50" relative="1" as="geometry">
                        <mxPoint x="400" y="310" as="sourcePoint"/>
                        <mxPoint x="450" y="260" as="targetPoint"/>
                    </mxGeometry>
                </mxCell>
                <mxCell id="N8jIvKrpUovW4Z0gwDRN-27" value="&lt;br&gt;Autentificare&lt;br&gt;" style="ellipse;whiteSpace=wrap;html=1;" parent="1" vertex="1">
                    <mxGeometry x="170" y="560" width="110" height="60" as="geometry"/>
                </mxCell>
                <mxCell id="N8jIvKrpUovW4Z0gwDRN-28" value="" style="endArrow=classic;html=1;rounded=0;exitX=1;exitY=0.75;exitDx=0;exitDy=0;entryX=0;entryY=0.5;entryDx=0;entryDy=0;" parent="1" source="N8jIvKrpUovW4Z0gwDRN-3" target="N8jIvKrpUovW4Z0gwDRN-27" edge="1">
                    <mxGeometry width="50" height="50" relative="1" as="geometry">
                        <mxPoint x="400" y="610" as="sourcePoint"/>
                        <mxPoint x="250" y="540" as="targetPoint"/>
                    </mxGeometry>
                </mxCell>
                <mxCell id="N8jIvKrpUovW4Z0gwDRN-29" value="Postarea/partajarea de continut" style="ellipse;whiteSpace=wrap;html=1;" parent="1" vertex="1">
                    <mxGeometry x="270" y="290" width="110" height="60" as="geometry"/>
                </mxCell>
                <mxCell id="N8jIvKrpUovW4Z0gwDRN-30" value="" style="endArrow=classic;html=1;rounded=0;entryX=0.5;entryY=1;entryDx=0;entryDy=0;dashed=1;dashPattern=12 12;" parent="1" source="N8jIvKrpUovW4Z0gwDRN-31" target="N8jIvKrpUovW4Z0gwDRN-29" edge="1">
                    <mxGeometry width="50" height="50" relative="1" as="geometry">
                        <mxPoint x="400" y="410" as="sourcePoint"/>
                        <mxPoint x="450" y="360" as="targetPoint"/>
                    </mxGeometry>
                </mxCell>
                <mxCell id="N8jIvKrpUovW4Z0gwDRN-31" value="Aprecierea postarilor" style="ellipse;whiteSpace=wrap;html=1;" parent="1" vertex="1">
                    <mxGeometry x="270" y="430" width="110" height="60" as="geometry"/>
                </mxCell>
                <mxCell id="N8jIvKrpUovW4Z0gwDRN-32" value="" style="endArrow=classic;html=1;rounded=0;exitX=0.676;exitY=0.053;exitDx=0;exitDy=0;exitPerimeter=0;dashed=1;dashPattern=12 12;" parent="1" source="N8jIvKrpUovW4Z0gwDRN-27" edge="1">
                    <mxGeometry width="50" height="50" relative="1" as="geometry">
                        <mxPoint x="400" y="410" as="sourcePoint"/>
                        <mxPoint x="325" y="490" as="targetPoint"/>
                    </mxGeometry>
                </mxCell>
                <mxCell id="N8jIvKrpUovW4Z0gwDRN-33" value="" style="endArrow=classic;html=1;rounded=0;exitX=1;exitY=0.5;exitDx=0;exitDy=0;entryX=0;entryY=0.5;entryDx=0;entryDy=0;dashed=1;dashPattern=12 12;" parent="1" source="N8jIvKrpUovW4Z0gwDRN-31" target="N8jIvKrpUovW4Z0gwDRN-12" edge="1">
                    <mxGeometry width="50" height="50" relative="1" as="geometry">
                        <mxPoint x="400" y="410" as="sourcePoint"/>
                        <mxPoint x="450" y="360" as="targetPoint"/>
                    </mxGeometry>
                </mxCell>
                <mxCell id="N8jIvKrpUovW4Z0gwDRN-34" value="" style="endArrow=classic;html=1;rounded=0;exitX=1;exitY=0.5;exitDx=0;exitDy=0;entryX=0;entryY=0;entryDx=0;entryDy=0;dashed=1;dashPattern=12 12;" parent="1" source="N8jIvKrpUovW4Z0gwDRN-31" target="N8jIvKrpUovW4Z0gwDRN-13" edge="1">
                    <mxGeometry width="50" height="50" relative="1" as="geometry">
                        <mxPoint x="400" y="410" as="sourcePoint"/>
                        <mxPoint x="450" y="360" as="targetPoint"/>
                    </mxGeometry>
                </mxCell>
                <mxCell id="2" value="&amp;lt;&amp;lt;extend&amp;gt;&amp;gt;" style="text;html=1;strokeColor=none;fillColor=none;align=center;verticalAlign=middle;whiteSpace=wrap;rounded=0;" vertex="1" parent="1">
                    <mxGeometry x="410" y="440" width="50" height="20" as="geometry"/>
                </mxCell>
                <mxCell id="4" value="&amp;lt;&amp;lt;extend&amp;gt;&amp;gt;" style="text;html=1;strokeColor=none;fillColor=none;align=center;verticalAlign=middle;whiteSpace=wrap;rounded=0;rotation=45;" vertex="1" parent="1">
                    <mxGeometry x="410" y="490" width="50" height="10" as="geometry"/>
                </mxCell>
                <mxCell id="5" value="&amp;lt;&amp;lt;include&amp;gt;&amp;gt;" style="text;html=1;strokeColor=none;fillColor=none;align=center;verticalAlign=middle;whiteSpace=wrap;rounded=0;rotation=-225;" vertex="1" parent="1">
                    <mxGeometry x="270" y="520" width="50" height="20" as="geometry"/>
                </mxCell>
                <mxCell id="6" value="&amp;lt;&amp;lt;include&amp;gt;&amp;gt;" style="text;html=1;strokeColor=none;fillColor=none;align=center;verticalAlign=middle;whiteSpace=wrap;rounded=0;rotation=90;" vertex="1" parent="1">
                    <mxGeometry x="310" y="390" width="55" height="10" as="geometry"/>
                </mxCell>
                <mxCell id="7" value="" style="curved=1;endArrow=classic;html=1;entryX=1;entryY=0.5;entryDx=0;entryDy=0;dashed=1;dashPattern=12 12;" edge="1" parent="1" source="N8jIvKrpUovW4Z0gwDRN-24" target="N8jIvKrpUovW4Z0gwDRN-27">
                    <mxGeometry width="50" height="50" relative="1" as="geometry">
                        <mxPoint x="360" y="370" as="sourcePoint"/>
                        <mxPoint x="410" y="320" as="targetPoint"/>
                        <Array as="points">
                            <mxPoint x="410" y="370"/>
                            <mxPoint x="410" y="520"/>
                        </Array>
                    </mxGeometry>
                </mxCell>
                <mxCell id="8" value="&amp;lt;&amp;lt;include&amp;gt;&amp;gt;" style="text;html=1;strokeColor=none;fillColor=none;align=center;verticalAlign=middle;whiteSpace=wrap;rounded=0;rotation=90;" vertex="1" parent="1">
                    <mxGeometry x="390" y="270" width="60" height="20" as="geometry"/>
                </mxCell>
            </root>
        </mxGraphModel>
    </diagram>
</mxfile>